# xmcd
#
# Track frame offsets:
#	150
#	13607
#	29019
#	45812
#	61564
#	76137
#
# Disc length: 1221 seconds
#
# Revision: 1
# Processed by: cddbd v1.5.1PL0 Copyright (c) Steve Scherf et al.
# Submitted via: CDex 1.50Beta5
#
DISCID=3504c306
DTITLE=DREAM DOLPHIN - ボーイフレンズ・キス・ミー
DYEAR=1996
DGENRE=Pop
TTITLE0=ボーイフレンズ・キス・ミー
TTITLE1=ベイビー・ベティー
TTITLE2=ビビアンのハンドバッグ
TTITLE3=ウェアー・ミー
TTITLE4=ボーイフレンズ・キス・ミー
TTITLE5=ベイビー・ベティー
EXTD=
EXTT0=
EXTT1=
EXTT2=
EXTT3=
EXTT4=
EXTT5=
PLAYORDER=
